<svg version="1.1" id="Layer_1" xmlns="http://www.w3.org/2000/svg" xmlns:xlink="http://www.w3.org/1999/xlink" x="0px"
     y="0px"
     width="100%" viewBox="0 0 1110 916" enable-background="new 0 0 1110 916" xml:space="preserve">
    <path id="half-house" fill="#0B7634" opacity="1.000000" stroke="none"
          d="M 197 518 L 139.8711 461.8904 L 337.4833 264.1176 Q 341 261 341.1137 255.3846 C 340.9891 228.2189 341.067 201.0524 341.0384 173.8861 C 341.028 163.987 340.9743 163.9819 350.8936 163.9787 L 405.6559 163.9821 C 412.4827 163.9927 412.3328 164.0408 412 189 L 412.039 189.4431 L 464 138 L 464 779 L 240 779 L 240 484 Q 240 480 239 480 Q 238 480 236 482 L 197 518 M 440 758 L 440 195 L 390 244 L 390 187 L 362 187 L 362 261 Q 362 275 348 289 L 171.8826 462.633 L 197.9392 488.7089 L 260 426 L 260 758 z"/>
    <path id="g" fill="#D51216" opacity="1.000000" stroke="none"
          d="M 912 709 L 970 740 Q 975 743 970 746 L 912 777 L 490 777 L 490 709 L 912 709 M 513 734 C 510 751 519 769 537 766 C 542 765 547 763 548 757 L 548 741 L 533 741 L 533 747 L 542 747 L 542 751 Q 542 760 535 760 Q 524 760 521 751 Q 519 744 520 737 C 522 727 532 723 542 727 C 546 729 546 728 548 723 C 541 718 534.2841 717.8549 529 719 C 520 721 515 726 513 734 Z"/>
    <path id="f" fill="#E8412E" opacity="1.000000" stroke="none"
          d="M 860 614 L 920.3725 647.8958 L 860 682 L 490 681 L 490 614 L 860 614 M 514 624 L 514 671 C 514 677 526 677 526 671 L 526 659 Q 526 653 532 653 L 543 653 C 549 652 549 643 543 643 L 530 643 Q 526 643 526 638.5 Q 526 634 530 634 L 543 634 C 549 634 549 624 543 624 z"/>
    <path id="e" fill="#F09123" opacity="1.000000" stroke="none"
          d="M 805 520 L 863 551 Q 866 553 863 555 L 805 590 L 490 590 L 490 520 L 805 520 M 514 528 L 514 528 L 514 580 L 543 580 C 547 580 548 576 548 574 C 548 571 546 568 542 568 C 539 568 535 568 532 568 C 528 568 526 568 526 563 C 526 559 528 559 532 559 L 543 559 C 549 559 549 548 543 548 L 530 548 C 528 548 526 548 526 543 C 526 539 528 539 530 539 L 543 539 C 549 539 549 528 543 528 z"/>
    <path id="d" fill="#FFDF06" opacity="1.000000" stroke="none"
          d="M 750 425 L 807 455 Q 811 457 807 459 L 750 490 L 490 490 L 490 425 L 750 425 M 536 435 L 517 435 Q 511 435 511 440 L 511 477 Q 511 483 517 483 L 536 483 C 555 483 555 435 536 435 M 523 441 L 532 441 C 545 441 545 477 532 477 L 523 477 Q 519 477 519 473 L 519 444 Q 519 441 523 441 z"/>
    <path id="c" fill="#82BA37" opacity="1.000000" stroke="none"
          d="M 746 368 L 690 400 L 489 400 L 488 330 L 690 330 L 746 362 Q 752 365 746 368 M 545 347 C 533 339 521 344 516 351 S 509 377 526 385 C 539 390 545 384 548 381 L 544 377 C 537 386 524 380 521 373 C 512 352 534 343 542 351 L 545 347 "/>
    <path id="b" fill="#39A936" opacity="1.000000" stroke="none"
          d="M 490 235 L 637 235 L 700 266 Q 704 268 700 270 L 639 304 L 490 304 L 490 235 M 515 291 L 534 291 C 541 291 546 281 544 275 Q 542 269 536 268 C 543 260 541 248 530 247 L 515 247 L 515 291 M 519 272 L 519 286 L 532 286 C 540 287 541 272 532 272 L 519 272 M 519 265 L 528 265 C 538 265 537 252 528 252 L 519 252 L 519 265"/>
    <path id="a" fill="#0A7633" opacity="1.000000" stroke="none"
          d="M 585 140 L 639 172 Q 645 175 639 178 L 585 210 L 489 210 L 489 140 L 585 140 M 536 160 Q 530 143 524 160 L 511 199 C 517 199 520 198 520 193 C 521 180 540 180 541 193 C 541 198 545 199 550 199 L 536 160 M 522 177 L 538 177 L 533 163 Q 530 154 527 163 L 522 177 Z"/>
</svg>