<?xml version="1.0" encoding="utf-8"?>
<!-- Generator: Adobe Illustrator 16.0.4, SVG Export Plug-In . SVG Version: 6.00 Build 0)  -->
<!DOCTYPE svg PUBLIC "-//W3C//DTD SVG 1.1//EN" "http://www.w3.org/Graphics/SVG/1.1/DTD/svg11.dtd">
<svg version="1.1" id="Layer_1" xmlns="http://www.w3.org/2000/svg" x="0px" y="0px"
	 width="300px" height="300px" viewBox="0 0 160 150"
	 xml:space="preserve">
<g>
	<g>
		<polygon fill="#017E40" points="136.693,107.088 123.603,100.574 123.181,101.541 136.14,108.342 		"/>
		<path fill="#017E40" d="M109.249,0H45.242L0,45.251v64.032l45.242,45.264h64.007l45.242-45.264V45.251L109.249,0z
			 M149.424,106.926l-42.962,42.887H47.296L5.022,107.514l0.041-60.049L47.386,4.873h59.973l41.955,41.929L149.424,106.926z"/>
		<g>
			<g>
				<g>
					<path fill="#017E40" d="M71.816,38.967c1.741-0.229,2.797-0.445,4.885-0.445v-1.109c-0.02-1.332-0.626-1.997-2.24-1.927
						c0,0-1.086,0.304-1.435-0.223c0,0,0.036,0.372-0.373,0.894c-0.281,0.367-0.903,0.734-0.903,0.734s1.439-0.293,1.797-0.293
						c0.676,0,2.062-0.518,2.011,0.891h-0.023c-0.588,0.076-1.77,0.076-3.899,0.444L71.816,38.967z"/>
					<g>
						<path fill="#017E40" d="M78.86,35.263c-0.111,0-0.201,0-0.29,0l0.033,4.81h-0.022c-0.071,1.625-1.599,0.885-1.678,0.816
							c0.766,1.035,2.624,0.886,2.715-0.893l0.231-5.396C79.849,34.6,79.526,35.263,78.86,35.263z"/>
						<path fill="#017E40" d="M79.229,32.895c0.37,0,0.706-0.286,0.723-0.658c0.039-0.371-0.243-0.668-0.625-0.738
							c-0.373,0-0.705,0.289-0.724,0.663C78.57,32.529,78.86,32.824,79.229,32.895z"/>
					</g>
				</g>
				<g>
					<path fill="#017E40" d="M92.229,37.933c-0.096,0-0.174-0.083-0.268-0.083l-1.678,4.518h-0.023
						c-0.622,1.479-1.808,0.217-1.85,0.15c0.34,1.257,2.111,1.771,2.852,0.145l2.123-4.958C93.385,37.704,92.87,38.15,92.229,37.933
						z"/>
					<path fill="#017E40" d="M85.993,41.627c0.39,0,0.704-0.223,0.723-0.67c0.022-0.367-0.277-0.662-0.643-0.662
						c-0.372-0.073-0.703,0.221-0.725,0.594C85.332,41.33,85.63,41.627,85.993,41.627z"/>
					<path fill="#017E40" d="M91.356,35.789c0,0-0.476,0.809-1.814,0.43c0,0,0.33,0.447,0.167,0.896
						c-0.056,0.146-0.37,1.035-0.686,1.994c-1.565-0.518-4.209-1.033-5.555-1.26c0,0,0.569-0.588,0.842-1.184
						c0.503-1.031,0.283-2.211,0.283-2.211c-0.041,0.592-0.25,2.734-3.698,4.216c0,0,2.214-0.149,8.885,1.845L91.356,35.789z"/>
				</g>
				<g>
					<path fill="#017E40" d="M108.175,48.643l-2.017-2.136c-0.594-0.518-0.848-0.221-1.515,0.443l-1.133,1.331l1.742,1.629
						l-0.999,0.959h-0.037c-1.125,1.033-1.711-0.518-1.711-0.594c-0.194,1.187,1.196,2.367,2.493,1.266L108.175,48.643z
						 M104.973,48.137l0.351-0.295c0.268-0.302,0.476-0.302,0.765-0.079l0.614,0.665l-0.719,0.738L104.973,48.137z"/>
					<path fill="#017E40" d="M103.687,41.035c0.365,0,0.679-0.297,0.679-0.666c0.025-0.373-0.298-0.67-0.664-0.74
						c-0.387,0-0.687,0.298-0.708,0.74C102.994,40.738,103.314,41.035,103.687,41.035z"/>
					<path fill="#017E40" d="M105.771,42.518c0.388,0,0.702-0.302,0.702-0.668c0-0.372-0.3-0.67-0.683-0.67
						c-0.37,0-0.686,0.298-0.686,0.67C105.103,42.216,105.4,42.518,105.771,42.518z"/>
					<path fill="#017E40" d="M103.142,41.697c-0.662-0.44-1.01-0.367-1.547,0.443l-0.909,1.407l1.871,1.399l-0.514,0.674
						c-0.738-0.523-3.035-2.073-4.179-2.734l2.822-5.107c0,0-0.842,0.521-2.05,0.297c0,0,0.372,0.152,0.156,0.516
						c-0.059,0.079-2.606,5.104-2.631,5.183c-0.626,1.103-1.51,0.882-1.942,0.664c-0.858-0.448-0.963-1.261-0.846-1.776
						c0.11-0.521,0.317-1.405,1.755-2.072c0,0,0.216,0.367,0.667,0.078c0.417-0.299,0.557-1.039,0.557-1.039
						c-0.634,0.367-2.81,1.406-3.289,2.738c-0.505,1.328,0.212,2.51,1.047,2.809c0.489,0.221,1.999,0.734,2.9-0.816l0.314-0.514
						c1.468,0.811,2.866,1.621,4.913,3.328l3.074-3.85L103.142,41.697z M102.151,43.324l0.252-0.438
						c0.224-0.303,0.336-0.303,0.65-0.074l0.72,0.512l-0.588,0.812L102.151,43.324z"/>
				</g>
				<g>
					<path fill="#017E40" d="M68.846,33.785c0.37,0,0.648-0.373,0.625-0.736c-0.035-0.371-0.364-0.668-0.734-0.593
						c-0.391,0-0.667,0.368-0.629,0.739C68.123,33.564,68.458,33.785,68.846,33.785z"/>
					<path fill="#017E40" d="M62.115,44.211c0.37,0,0.651-0.365,0.631-0.733c-0.034-0.372-0.373-0.665-0.739-0.665
						c-0.363,0.074-0.67,0.365-0.626,0.735C61.42,43.99,61.729,44.211,62.115,44.211z"/>
					<path fill="#017E40" d="M64.19,43.178c0.364,0,0.643-0.365,0.625-0.736c-0.033-0.375-0.365-0.667-0.737-0.592
						c-0.393,0-0.669,0.366-0.63,0.734C63.471,42.957,63.802,43.249,64.19,43.178z"/>
					<path fill="#017E40" d="M69.235,38.371c-1.089,0.221-2.163,0.514-2.163,0.514l-2.442-2.582c0,0-0.369-0.514-1.051-0.443
						c-0.444,0.07-1.238,0.516-1.611,0.807c-0.402,0.295-0.698,0.822-0.313,1.267l1.886,2.14c-1.573,0.518-2.941,1.258-4.175,1.852
						c0,0,0.131-0.814,0-1.408c-0.224-1.182-1.112-1.924-1.112-1.924c0.333,0.447,1.425,2.297-0.417,5.545
						c0,0,1.939-1.619,7.624-3.695l-2.767-2.953c0.15-0.227,0.613-0.527,1.015-0.527l2.882,3.111
						c1.023-0.221,2.625-0.593,3.845-0.812l-0.687-4.367c0,0-0.165,0.742-0.625,1.037c-0.523,0.15-0.977,0.373-0.977,0.373
						s0.603-0.299,0.832,0.738L69.235,38.371z"/>
				</g>
				<g>
					<path fill="#017E40" d="M56.54,44.877h-0.887c-0.779,0-0.929-0.518-0.929-0.518c-0.078,0.518-0.721,0.816-1.369,0.671
						c-0.536-0.083-0.943-0.671-0.977-1.409c-0.018-0.883,0.775-1.48,1.388-1.18c-0.075,0.297,0.107,0.587,0.29,0.587
						c0.243,0.077,0.589,0,0.571-0.366c-0.033-0.371-0.366-0.446-0.381-0.446c-1.259-0.292-2.405,0.597-2.461,1.63
						c-0.04,0.961,0.611,1.923,1.499,1.923c-0.484,0.372-0.941,0.738-1.334,1.112l-4.026-4.59c0,0,0.148,0.814-0.426,1.699
						c0,0,0.221-0.216,0.456,0.073c0.189,0.226,2.133,2.294,3.203,3.477c-0.388,0.368-0.683,0.672-0.902,0.888
						c-0.209-0.072-0.428-0.146-0.668-0.146c-0.961-0.069-1.811,0.669-1.886,1.629c-0.033,0.365,0.075,0.666,0.239,0.959
						c-0.22,0.295-0.474,0.672-0.701,0.888l-4.825-3.699c0,0,0.294,0.817-0.098,1.773c0,0,0.171-0.297,0.471-0.073
						c0.312,0.299,4.659,3.479,4.659,3.479l0.221-0.299c0.052,0,0.108-0.077,0.127-0.077c0.13-0.142,0.551-0.74,0.961-1.249
						c0.167,0.07,0.354,0.146,0.551,0.146c0.966,0.074,1.793-0.667,1.873-1.631c0.033-0.295-0.037-0.592-0.183-0.887
						C52.949,47.25,55.312,45.621,56.54,44.877z M49.403,50.646c-0.354-0.07-0.593-0.371-0.574-0.663
						c0.017-0.372,0.317-0.595,0.667-0.595c0.329,0,0.59,0.299,0.548,0.668C50.034,50.43,49.731,50.646,49.403,50.646z"/>
					<g>
						<path fill="#017E40" d="M43.229,47.393c0,0,1.699-1.106,2.129-2.586h0.291c0,0,0.094,0.738-0.7,1.625
							C44.168,47.319,43.229,47.393,43.229,47.393z"/>
						<path fill="#017E40" d="M44.021,48.058c0,0,1.703-1.177,2.132-2.661h0.287c0,0,0.079,0.811-0.697,1.623
							C44.963,47.908,44.021,48.058,44.021,48.058z"/>
					</g>
				</g>
			</g>
			<g>
				<path fill="#017E40" d="M70.251,12.93c-0.074-0.584,0.429-0.584,0.429-0.584c-1.558-0.229-2.314-1.26-2.314-1.26l1.442,10.499
					c0.056,0.368-0.183,0.667-0.52,0.744c-0.376,0.067-0.69-0.153-0.739-0.522l-1.743-10.423c0,0-0.436,1.181-1.824,1.919
					c0,0,0.464-0.217,0.576,0.37c0.032,0.218,0.532,2.812,0.96,5.099c-0.831,0.154-1.667,0.37-2.44,0.598l-0.705-3.328
					c0,0-0.367,1.256-1.701,2.067c0,0,0.442-0.22,0.574,0.376c0.056,0.221,0.202,0.812,0.313,1.254
					c-0.648,0.219-1.33,0.37-1.92,0.518l-0.91-3.176c0,0-0.285,1.176-1.583,2.062c0,0,0.426-0.216,0.592,0.376
					c0.072,0.221,0.462,1.256,0.462,1.256c-0.597,0.142-1.203,0.291-1.725,0.516l-1.056-3.033c0,0-0.257,1.188-1.51,2.147
					c0,0,0.443-0.224,0.623,0.3c0.042,0.144,1.943,5.246,1.943,5.246c0.212,0.594-0.031,1.409-1.128,1.553
					c-0.148,0-0.292-0.073-0.442-0.144c0.294,0.216,0.611,0.296,0.943,0.296c1.13,0,2.423-0.887,1.995-2.371l-0.823-2.437
					c2.619-1.04,5.703-1.856,8.786-2.443c0.194,0.961,0.358,1.62,0.358,1.62c0.146,0.896,0.884,1.559,1.748,1.704
					c0.485,0,0.653,0.672,0.653,0.672c0-0.366,0.205-0.746,0.332-0.892c0.851-0.295,1.369-1.111,1.313-1.996l-0.02,0.073
					C71.191,21.585,70.303,13.303,70.251,12.93z"/>
				<path fill="#017E40" d="M90.955,12.714c0.518,0,0.917-0.442,0.917-0.962c0-0.522-0.399-0.889-0.917-0.889
					c-0.507,0-0.933,0.366-0.933,0.889C90.022,12.271,90.448,12.714,90.955,12.714z"/>
				<path fill="#017E40" d="M122.056,40.072l-0.911-1.188l6.562-5.759c0,0-0.383,1.179,0.227,2.663c0,0-0.242-0.445-0.688-0.077
					C126.824,36.08,122.056,40.072,122.056,40.072z"/>
				<path fill="#017E40" d="M34.763,38.441L33.8,39.629l-6.669-5.765c0,0,1.235,0.22,2.603-0.597c0,0-0.383,0.297,0.042,0.739
					L34.763,38.441z"/>
				<path fill="#017E40" d="M57.698,15.078c0.499,0,0.905-0.443,0.905-0.959c0-0.52-0.406-0.891-0.905-0.891
					c-0.5,0-0.902,0.371-0.902,0.891C56.796,14.635,57.199,15.078,57.698,15.078z"/>
				<path fill="#017E40" d="M58.456,17.371c0.503,0,0.91-0.365,0.91-0.887c0-0.516-0.406-0.964-0.91-0.964
					c-0.5,0-0.906,0.448-0.906,0.964C57.549,17.006,57.956,17.371,58.456,17.371z"/>
				<path fill="#017E40" d="M64.479,25.43c0.503,0,0.888-0.367,0.888-0.887c0-0.51-0.385-0.961-0.888-0.961
					c-0.496,0-0.901,0.451-0.901,0.961C63.579,25.062,63.984,25.43,64.479,25.43z"/>
				<path fill="#017E40" d="M20.755,67.132c0.429-2.659,0.687-3.841,1.589-6.868l-1.555-0.521c-1.309-0.295-3.47,0.15-3.952,2.214
					c0,0-0.242,1.928-0.963,2.007c0,0,0.483,0.143,1.041,0.954c0.365,0.518,0.604,1.628,0.604,1.628s0.426-2.146,0.553-2.661
					c0.306-0.958,0.306-3.253,2.277-2.437l0,0c-0.221,0.886-0.723,2.213-1.242,5.397L20.755,67.132z"/>
				<path fill="#017E40" d="M51.893,19.369c0,0-0.129,1.034-0.958,1.478c-1.995,0.96-2.197,2.443-1.648,3.624l0.946,1.848
					l2.472-1.256l0.817,1.775l0.02,0.073c0.85,1.919-1.462,1.993-1.593,1.919c1.551,0.817,3.754-0.438,2.792-2.66L51.893,19.369z
					 M50.754,24.176c-0.263-0.448-0.356-0.812-0.225-1.184c0.126-0.298,0.864-0.74,0.864-0.74l0.611,1.33L50.754,24.176z"/>
				<path fill="#017E40" d="M35.78,29.797c0,0,0.202,1.025-0.466,1.701c-1.604,1.551-1.345,3.027-0.455,3.987l1.457,1.476
					l1.958-2.068l1.331,1.482h0.018c1.42,1.629-0.757,2.438-0.925,2.438c1.743,0.227,3.434-1.623,1.846-3.469L35.78,29.797z
					 M36.15,34.752c-0.389-0.377-0.59-0.668-0.576-1.035c0.022-0.371,0.612-1.039,0.612-1.039l0.981,1.039L36.15,34.752z"/>
				<path fill="#017E40" d="M44.818,21.658c-0.296-0.515,0.164-0.668,0.164-0.668c-1.514,0.374-2.604-0.217-2.604-0.217l3.657,6.138
					c-0.959,0.591-2.439,1.692-3.916,2.81c0,0-0.236-1.329-0.595-1.851c-0.588-0.884-1.605-1.179-1.605-1.179
					c0.592,0.592,2.18,2.509,0.648,6.287c0,0,1.46-1.631,7.575-5.477C48.142,27.502,45.115,22.176,44.818,21.658z"/>
				<path fill="#017E40" d="M97.109,13.447c0,0-0.742,0.744-1.627,0.443c-2.163-0.514-3.271,0.445-3.61,1.773l-0.441,2l2.711,0.665
					l-1.07,3.771c0,0-0.182,1.408-0.921,1.264c-0.72-0.226-0.313-1.481-0.313-1.481l0.512-2.284c0,0-2.953-0.672-3.377-0.746
					c0,0,0.443-1.846-0.561-3.102c-0.913-1.26-1.804-1.26-1.804-1.26l0.458-3.404c0,0-0.664,1.628-2.545,1.554h-0.019
					c-0.019,0-0.019,0,0,0c0.275,0.074,0.83,0.216,0.719,1.033l-0.074,0.663c0,0-1.168-0.145-2.351,0.895
					c-0.997,0.954-1.051,2.658-1.051,2.658s-0.849-0.074-1.107-0.074l0.02-1.261c-0.095-1.033-1.041-2.218-2.886-2.284
					c0,0-2.05,0.221-2.547-0.523c0,0,0,0.668-0.443,1.115c-0.482,0.514-1.235,0.803-1.235,0.803s2.062-0.144,2.58-0.068
					c1.738,0.154,3.166-0.365,3.14,2.068c0,0.076-5.684,0.225-5.684,0.225l0.085,1.629c0,0,5.27-0.376,8.008-0.074v2.068
					c0,0,0.07,1.926,1.747,2.07c1.948,0.146,2.162-1.7,2.162-1.7l0.281-1.997c1.014,0.224,3.158,0.592,4.772,0.962l-0.227,1.405
					c0,0-0.388,1.703,1.132,2.361c0.165,0.229,0.146,0.524,0.085,0.67c0,0,0.208-0.366,0.522-0.516
					c1.168,0.149,1.638-0.521,1.94-1.555C94.09,23.213,96.939,13.968,97.109,13.447z M84.259,21.807c0,0-0.071,0.522-0.683,0.522
					c-0.44,0-0.667-0.671-0.667-0.671l0.078-2.061l1.515,0.141L84.259,21.807z M84.683,18.108l-1.531-0.145
					c0.085-1.108,0.681-2.144,1.811-2.144L84.683,18.108z M87.662,18.629l-1.551-0.3l0.251-2.36c0.58,0.216,1.058,0.66,1.279,1.111
					C87.882,17.664,87.662,18.629,87.662,18.629z M93.161,16.338c0.137-0.518,0.261-0.817,0.596-1.037
					C94.261,15.078,95,15.375,95,15.375l-0.403,1.408L93.161,16.338z"/>
				<path fill="#017E40" d="M14.252,70.318c1.067,0.514,1.475,1.033,1.475,1.033c1.188-1.033,3.012-0.367,3.049,1.038
					c0.032,1.769-1.37,1.917-1.807,1.917c-0.505,0-1.277,0.072-2.98-1.703c-1.864-1.844-2.714-1.252-3.064-0.887c0,0,0,0,0.019,0
					c-0.117,0.152-0.183,0.301-0.183,0.521c0.014,0.445,0.38,0.812,0.846,0.812c0.445-0.073,0.813-0.446,0.799-0.884
					c0-0.148-0.056-0.221-0.116-0.367c0.411,0.07,0.598,0.219,1.369,1.111c1.648,1.767,2.793,2.14,3.624,2.066
					c1.164,0,2.757-1.107,2.718-2.959c-0.06-2.221-2.217-2.955-3.083-2.884C15.137,69.134,14.252,70.318,14.252,70.318z"/>
				<path fill="#017E40" d="M123.178,30.386c0,0,0.411,0.291-0.016,0.745c-0.614,0.59-3.583,3.695-3.583,3.695
					c-0.25-0.227-0.764-0.742-1.405-1.262c0.075-0.219,0.126-0.516,0.126-0.74c0.01-0.518-0.385-1.403-0.385-1.403
					c-0.25-0.372,0.031-0.886,0.031-0.886s-0.383,0.371-0.959,0.142c-0.312-0.142-0.645-0.216-1.018-0.291
					c-0.443,0-0.841,0.149-1.181,0.365c-0.426-0.29-1.925-1.401-1.925-1.401l4.273-5.986c0,0-1.149,0.517-2.625,0
					c0,0,0.443,0.219,0.131,0.67c-0.262,0.366-4.456,6.644-4.456,6.644c-0.188,0.302-0.588,0.454-0.892,0.229
					c-0.287-0.229-0.376-0.598-0.179-0.889l2.159-3.475c0.497-0.667,0.589-2.144-0.904-3.035c-1.213-0.738-6.615-3.474-9.635-4.582
					l7.952,1.7c0.998,0.289,1.186,0.663,1.237,0.815c0,0,0.392-1.333,2.588-1.186l-12.903-2.808l-0.792,2.29
					c2.383,0.809,6.693,2.807,9.265,4.142c1.141,0.663,2.513,1.112,1.254,3.031c0,0-5.139-3.258-10.374-5.253
					c0,0-1.103-0.294-1.156-0.885c0,0-0.249,1.479-2.37,1.25c0,0,6.301,1.704,13.124,6.147l-0.63,1.029
					c-0.491,0.817-0.389,1.778,0.172,2.521c0.326,0.299,0.071,0.888,0.071,0.888c0.216-0.302,0.604-0.372,0.789-0.372
					c0.835,0.372,1.68,0.145,2.239-0.595l0,0l0.852-1.181c0,0,0.333,0.29,0.832,0.737c0.187,0.149,0.495,0.37,0.888,0.667
					c-0.116,0.296-0.188,0.591-0.188,0.889c0,1.33,1.056,2.363,2.345,2.363c0.447,0,0.841-0.07,1.186-0.291
					c0.48,0.437,0.828,0.734,0.854,0.734l1.413,1.48l6.366-6.135C125.751,30.906,124.549,31.198,123.178,30.386z M115.933,33.785
					c-0.536,0-0.961-0.439-0.961-1.031c0-0.518,0.452-0.967,0.981-0.967c0.544,0,0.977,0.449,0.977,1.037
					C116.911,33.346,116.497,33.785,115.933,33.785z"/>
				<g>
					<path fill="#017E40" d="M132.383,71.717c0.496,0,0.891-0.436,0.891-0.957c0-0.514-0.396-0.888-0.891-0.888
						c-0.497,0-0.898,0.374-0.898,0.888C131.485,71.281,131.886,71.717,132.383,71.717z"/>
					<path fill="#017E40" d="M139.164,68.394c-0.519-0.372-1.159-1.181-1.159-1.181s0.35,2,0.388,2.51
						c0.071,1.109,0.81,3.188-1.312,3.188v-0.078c-0.321-3.77-1.327-8.727-1.327-8.727c-0.03-0.067,6.849-1.772,6.849-1.772
						s-1.182-0.446-1.976-1.775c0,0,0.044,0.512-0.492,0.665l-6.324,1.621c0.112,0.447,0.238,0.895,0.37,1.484l0,0
						c0.519,2.217,1.091,5.469,1.42,10.349l1.622-0.073c1.353-0.146,3.187-1.183,2.946-3.322c0,0-0.46-1.484,0.269-2.371
						C140.437,68.91,139.958,68.984,139.164,68.394z"/>
					<path fill="#017E40" d="M130.224,38.592c0.491,0,0.91-0.363,0.92-0.888c0.016-0.515-0.364-0.96-0.869-0.96
						c-0.492,0-0.899,0.371-0.924,0.885C129.34,38.15,129.724,38.592,130.224,38.592z"/>
					<path fill="#017E40" d="M132.371,41.627c0.493,0,0.903-0.37,0.917-0.889c0.019-0.517-0.364-0.958-0.864-0.958
						c-0.506,0-0.924,0.37-0.924,0.888C131.485,41.18,131.864,41.627,132.371,41.627z"/>
					<path fill="#017E40" d="M137.446,58.263c-0.531-1.405-1.939-3.103-4.028-2.141c-0.216-0.599-1.644-3.702-1.934-4.44
						c0.861,0.075,2.213,1.256,2.213,1.256s0.961-0.889,0.754-2.214c0,0,0.317-0.448,0.246-0.813
						c-0.172-0.96,0.306-1.188,0.306-1.188s-0.552,0.228-1.164-0.511c-0.22-0.229-0.716-0.304-0.716-0.304
						c-1.371-1.256-2.625-0.589-2.625-0.589c0.254,0.962-0.146,2.215-0.146,2.215c-1.592-2.732-2.549-4.283-2.549-4.283l1.74-1.188
						l2.878-1.848c0,0-1.238,0-2.428-1.036c0,0,0.228,0.447-0.261,0.744c-0.088,0.076-0.253,0.143-0.473,0.292
						c-1.406-1.774-3.008-2.587-5.623-0.441c1.718,2.216,4.202,6.362,5.641,9.023l0.842,0.366l-0.201,0.885
						c2.091,4.221,3.497,8.8,3.497,8.8l5.269-1.545C138.687,59.304,137.779,59.152,137.446,58.263z M131.7,48.502
						c0,0,0.869,0.073,1.373,1.109c0.417,0.965,0.09,1.697,0.09,1.697s-0.44-0.439-1.63-0.811
						C131.533,50.498,131.794,49.831,131.7,48.502z M125.825,42.367c0.942-0.593,1.643-0.076,2.136,0.738l-1.062,0.814
						L125.825,42.367z M134.385,59.077l-0.503-1.479c0.532-0.3,0.92-0.37,1.462-0.068c0.554,0.289,0.755,1.029,0.755,1.029
						L134.385,59.077z"/>
				</g>
				<path fill="#017E40" d="M32.623,40.957l-6.656-5.694c0,0,0.403,1.193-0.182,2.67c0,0,0.24-0.444,0.678-0.083l4.012,3.26
					l-1.256,1.629h0.033c-0.182,0-0.364-0.076-0.549-0.076c-0.646,0-1.22,0.295-1.642,0.662c-0.28,0.153-0.724,0-0.724,0
					s0.313,0.371,0.22,0.739c-0.13,0.296-0.206,0.593-0.206,0.967c0,0.515,0.187,1.036,0.502,1.401
					c-0.368,0.666-1.722,2.887-1.739,2.808c-0.052-0.597,0.077-1.989,0.077-1.989c-0.816-0.448-1.871-0.23-2.714,0.513
					c-0.376-0.075-0.76,0.221-1.059,0.665c-0.328,0.215-0.757,0.074-0.757,0.074s0.37,0.373,0.331,0.737
					c-0.123,0.448-0.106,0.817,0.06,1.112c-0.13,1.11,0.236,2.144,1.089,2.586c0,0,0.829-0.738,1.701-1.106
					c0,0-1.018,2.222-1.483,3.62l-6.667-2.514c0,0,0.772,0.963,0.701,2.514c0,0,0.071-0.438,0.611-0.291
					c0.537,0.216,6.353,2.217,6.353,2.217s1.616-4.069,2.2-5.402l-0.293-0.956l1.018-0.295c0.645-1.256,1.256-2.368,1.79-3.259
					l0.093-0.215c0.168,0.069,0.334,0.069,0.503,0.069c1.271,0,2.329-1.033,2.348-2.289c0-0.519-0.164-0.967-0.427-1.335
					L32.623,40.957z M23.305,50.646c-0.519,0.223-0.846,0.662-0.846,0.662c-0.317-0.732-0.191-1.398,0.051-1.841
					c0.235-0.448,0.87-1.04,1.442-1.112c0,0-0.077,0.595-0.037,1.112c0.037,0.363,0.108,0.884,0.108,0.884
					S23.604,50.498,23.305,50.646z M28.667,45.989c-0.519,0-0.948-0.444-0.948-0.959c0-0.519,0.445-0.967,0.97-0.967
					c0.529,0,0.958,0.448,0.958,0.967C29.625,45.545,29.199,45.989,28.667,45.989z"/>
			</g>
		</g>
		<g>
			<path fill="#017E40" d="M130.213,117.662l-5.242-3.92l0.429-0.518l-0.917-0.66l-0.392,0.516l-2.032-1.547l-0.665,0.803
				l2.011,1.629l-0.75,0.965c-0.301,0.369-0.894-0.146-0.894-0.146l-3.295-2.736c-0.531-0.373-0.34-0.816-0.34-0.816l1.323-1.699
				l-0.87-0.666c0,0-1.532,1.922-1.583,1.992c-0.723,0.816,0.183,1.479,0.183,1.479l4.098,3.553c0.596,0.514,0.893,0.367,1.17,0.152
				c-0.462,0.662,0.277,1.105,0.277,1.105l3.917,3.477c0,0,0.817,0.588,1.495-0.297L130.213,117.662z M128.445,118.402
				c-0.033,0.074-0.511,0.666-0.511,0.666c-0.513,0.52-0.977,0.152-0.977,0.152l-3.015-2.592c-0.519-0.443-0.593-0.588-0.445-0.814
				l0.816-1.115l3.695,2.963C128.262,117.887,128.715,118.033,128.445,118.402z"/>
			<path fill="#017E40" d="M133.526,78.822l-3.313-0.15c-0.601,0-1.065,0.291-1.086,1.846c-0.16,1.556,0.24,1.773,0.996,1.927
				l4.549,0.37c0,0,0.462,0.146,1.226-0.887l1.158-1.623c0.348-0.379,0.763-0.303,1.844-0.227l2.851,0.146
				c0.329,0.081,0.718,0.146,0.702,0.591l-0.123,1.036c-0.022,0.44-0.283,0.594-0.799,0.44l-3.087-0.288l-0.074,1.183l4.007,0.438
				c0.925,0,1.238-0.662,1.261-1.26l0.144-1.994c0.033-0.887-0.495-1.258-1.405-1.333l-4.47-0.142c-0.734,0-1.238,0-1.439,0.367
				l-1.334,1.778c-0.63,0.888-0.977,0.587-0.977,0.587l-3.031-0.146c-0.72,0-0.928-0.223-0.835-0.964
				c0.075-0.735,0.137-0.885,0.983-0.807l2.178,0.146L133.526,78.822z"/>
			<polygon fill="#017E40" points="140.421,98.039 139.184,97.672 138.72,98.998 133.789,97.221 134.13,96.193 133.035,95.83 
				132.681,96.787 127.246,94.863 127.577,93.836 126.579,93.463 125.874,95.451 139.5,100.629 			"/>
			<polygon fill="#017E40" points="143.403,84.332 142.315,84.25 142.125,85.814 128.815,84.031 128.647,84.992 143.012,87.143 			
				"/>
			<polygon fill="#017E40" points="135.547,109.537 122.724,102.514 122.256,103.396 128.099,108.201 121.065,105.396 
				120.471,106.277 132.614,114.336 133.367,113.307 125.678,108.352 134.166,111.828 126.902,106.059 134.903,110.57 			"/>
			<path fill="#017E40" d="M135.991,92.566l5.593,1.475l0.354-1.254l-5.987-1.482c0,0-0.809,0-1.011,0.441
				c-0.06-0.291-0.138-0.881-0.892-0.881l-5.07-1.182c0,0-1.173-0.447-1.402,0.514l-0.809,2.662l13.929,4.436l0.373-1.258
				l-6.268-1.84l0.354-1.338C135.29,92.418,135.618,92.492,135.991,92.566z M133.647,93.82l-5.399-1.547l0.277-1.111
				c0,0,0-0.592,0.637-0.371c0.671,0.219,4.313,1.104,4.313,1.104s0.734,0.158,0.597,0.672L133.647,93.82z"/>
			<polygon fill="#017E40" points="124.088,99.557 137.286,105.92 137.818,104.738 127.984,100.295 138.5,102.961 139.02,101.775 
				125.489,96.301 125.061,97.268 132.584,100.443 124.472,98.594 			"/>
			<path fill="#017E40" d="M142.602,88.865l0.189-1.107l-14.562-1.178l-0.243,1.111l13.955,4.434l0.291-1.26l-3.317-0.887
				l0.294-1.406L142.602,88.865z M138.02,89.752l-7.295-2.061l7.536,0.803L138.02,89.752z"/>
			<g>
				<polygon fill="#017E40" points="26.076,83.182 26.184,84.225 11.831,86.072 11.685,84.738 				"/>
				<polygon fill="#017E40" points="26.426,84.959 12.014,87.102 12.196,88.285 22.307,86.586 12.513,90.354 12.699,91.539 
					27.061,88.357 26.869,87.471 17.851,89.248 26.594,85.926 				"/>
				<polygon fill="#017E40" points="11.644,84.225 18.542,80.889 26.038,82.738 25.931,81.702 20.163,80.301 25.894,80.08 
					25.855,79.117 11.291,79.553 11.315,80.822 16.982,80.444 11.531,82.961 				"/>
				<path fill="#017E40" d="M19.845,95.607l-0.566-1.992l-1.06,0.289l0.258,0.889l-2.696,0.885
					c-0.406,0.082-0.882-0.148-0.999-0.584l-0.201-0.891c-0.15-0.52,0.333-0.67,0.756-0.74l10.186-2.658
					c0.696-0.146,0.939-0.146,1.182,0.803c0.204,0.746-0.22,0.967-0.775,1.041l-3.016,0.885l0.297,1.039l3.849-1.178
					c0.79-0.227,1.199-0.521,0.719-2.156c-0.389-1.547-0.719-1.77-1.703-1.547l-11.604,2.736c-0.939,0.297-1.41,0.658-1.147,1.775
					c0,0,0.331,1.779,1.364,1.699l-0.757,0.223l0.391,1.256L19.845,95.607z"/>
			</g>
			<path fill="#017E40" d="M109.853,117.793l7.616,9.686c0.414,0.596,0.503,0.885,0.198,1.188l-0.679,0.582
				c-0.465,0.297-0.81,0-1.181-0.51l-7.342-9.906l-0.823,0.586l7.781,10.943c0.42,0.666,1.051,0.742,1.55,0.373l1.869-1.486
				c0.543-0.439,0.94-0.812,0.364-1.625l-8.633-10.42L109.853,117.793z"/>
			<path fill="#017E40" d="M76.902,130.289c0.019-0.744-0.129-1.256-1.812-1.334c-1.62-0.146-1.976,0.293-2.013,1.104l-1.163,12.135
				c-0.06,0.889,0.682,1.256,1.592,1.256l1.77,0.07c0.903,0.074,1.354-0.289,1.405-1.176L76.902,130.289z M74.669,142.412
				l-0.923-0.068c-0.468,0-0.576-0.521-0.557-0.963l0.775-10.428c0.072-0.664,0.172-0.961,1.112-0.895
				c0.755,0.084,0.845,0.303,0.812,0.969l-0.364,10.648C75.497,142.125,75.105,142.412,74.669,142.412z"/>
			<path fill="#017E40" d="M102.981,123.85c-0.391-0.662-0.772-1.031-2.259-0.291c-1.476,0.668-1.543,1.258-1.197,1.996
				l4.956,11.094c0.406,0.805,1.201,0.736,2.014,0.365l1.59-0.811c0.809-0.445,0.975-0.887,0.59-1.699L102.981,123.85z
				 M106.989,135.537l-0.85,0.373c-0.41,0.141-0.678-0.152-0.887-0.594l-4.53-9.461c-0.276-0.668-0.312-0.893,0.541-1.334
				c0.679-0.295,0.888-0.15,1.201,0.51l4.754,9.4C107.418,134.793,107.4,135.316,106.989,135.537z"/>
			<polygon fill="#017E40" points="80.116,137.09 80.087,135.838 79.064,135.91 78.938,130.215 80.206,130.215 80.153,129.033 
				77.973,129.105 77.939,143.67 79.177,143.67 79.083,137.164 			"/>
			<path fill="#017E40" d="M89.047,134.576l-1.095-5.543c0,0-0.164-1.035-1.125-0.818l-2.754,0.523l1.699,14.344l1.345-0.23
				l-0.912-6.426l2.158-0.447C88.362,135.979,89.325,135.979,89.047,134.576z M87.346,134.951l-1.353,0.295l-0.718-5.621l0.89-0.152
				c0.443-0.148,0.753,0,0.791,0.297l0.812,4.438C87.768,134.207,87.863,134.867,87.346,134.951z"/>
			<polygon fill="#017E40" points="94.271,141.451 94.019,140.422 92.517,140.785 91.301,135.537 92.319,135.246 92.037,134.133 
				91.04,134.355 89.732,128.738 90.891,128.436 90.637,127.328 88.472,127.922 91.473,142.193 			"/>
			<polygon fill="#017E40" points="115.486,131.77 114.882,130.883 113.518,131.77 110.469,127.256 111.374,126.514 
				110.781,125.627 109.853,126.293 106.636,121.412 107.817,120.6 107.243,119.711 105.252,121.045 113.042,133.469 			"/>
			<polygon fill="#017E40" points="112.627,133.689 112.033,132.652 110.688,133.469 103.939,121.855 103.091,122.375 
				110.166,135.096 			"/>
			<polygon fill="#017E40" points="97.643,140.494 93.594,127.703 94.556,127.402 94.236,126.375 91.205,127.256 91.525,128.363 
				92.586,127.998 96.401,140.861 			"/>
			<polygon fill="#017E40" points="124.9,123.711 114.565,113.424 113.775,114.166 118.007,120.525 112.201,115.795 
				111.336,116.611 120.794,127.623 121.761,126.734 115.751,119.865 122.89,125.779 117.564,118.008 123.997,124.598 			"/>
			<path fill="#017E40" d="M100.558,133.322l2.144,5.322l1.237-0.449l-2.531-5.982c0,0-0.373-0.299-0.835-0.223
				c0.201-0.221,0.618-0.592,0.149-1.256l-2.028-4.73c0,0-0.354-1.26-1.259-0.816l-2.64,0.959l4.782,13.828l1.235-0.441
				l-2.255-6.211l1.268-0.445C100.26,132.652,100.41,132.951,100.558,133.322z M98.139,132.213l-1.954-5.252l1.011-0.447
				c0,0,0.485-0.367,0.716,0.297c0.239,0.592,1.654,4.143,1.654,4.143s0.277,0.59-0.228,0.74L98.139,132.213z"/>
			<path fill="#017E40" d="M57.159,129.545l1.263-3.031c0.206-0.594,0.109-1.1-1.387-1.697c-1.349-0.66-1.722-0.369-2.087,0.371
				l-1.96,4.061c0,0-0.263,0.449,0.425,1.486l1.111,1.627c0.35,0.59,0.093,0.811-0.117,1.258l-1.419,3.248
				c-0.131,0.297-0.408,0.586-0.832,0.369l-0.91-0.443c-0.406-0.145-0.329-0.443-0.104-0.955l1.271-2.738l-1.069-0.52l-1.757,3.697
				c-0.335,0.812,0.187,1.332,0.722,1.559l1.81,0.809c0.832,0.369,1.461,0.07,1.808-0.738l1.704-4.287
				c0.262-0.668,0.374-1.105-0.055-1.705l-1.051-1.553c-0.65-0.963-0.3-1.18-0.3-1.18l1.239-2.74
				c0.307-0.662,0.607-0.74,1.181-0.521c0.663,0.301,0.801,0.455,0.466,1.262l-0.888,2L57.159,129.545z"/>
			<path fill="#017E40" d="M39.755,112.537l-9.243,8.582c-0.462,0.447-0.758,0.594-1.071,0.293l-0.7-0.887
				c-0.318-0.299-0.244-0.588,0.238-1.033l9.573-8.205l-0.611-0.748l-10.293,8.582c-0.555,0.521-0.555,1.105-0.152,1.557
				l1.316,1.477c0.629,0.736,1.125,0.883,1.807,0.287l9.743-9.234L39.755,112.537z"/>
			<polygon fill="#017E40" points="42.893,133.988 43.45,133.021 42.047,132.131 45.115,127.623 45.942,128.145 46.592,127.182 
				45.776,126.59 48.959,121.855 50.101,122.598 50.693,121.635 48.739,120.385 40.385,132.287 			"/>
			<polygon fill="#017E40" points="59.729,141.301 63.396,128.293 64.67,128.582 64.931,127.549 61.55,126.59 61.196,127.703 
				62.415,128.074 58.53,140.934 			"/>
			<path fill="#017E40" d="M49.305,131.328l-2.471,4.723l1.168,0.598l2.691-5.32c0.447-0.896,0-1.186-0.18-1.336
				c0.273,0,0.795,0.15,1.108-0.447c0.66-1.182,2.435-4.729,2.435-4.729s0.589-1.035-0.276-1.475l-2.422-1.332l-7.428,12.494
				l1.093,0.66l3.265-5.691l0.799,0.52C49.787,130.432,49.496,130.953,49.305,131.328z M48.862,128.436l2.793-4.877l1.017,0.445
				c0.535,0.293,0.146,0.74-0.041,1.027l-1.995,3.777c0,0-0.183,0.516-0.645,0.297L48.862,128.436z"/>
			<polygon fill="#017E40" points="59.972,126.004 60.845,126.293 56.2,140.127 54.928,139.756 			"/>
			<polygon fill="#017E40" points="44.317,116.977 45.038,117.641 35.836,128.887 34.928,128.145 			"/>
			<polygon fill="#017E40" points="41.044,113.945 30.717,124.227 31.549,125.031 38.517,117.863 32.936,126.293 33.833,127.109 
				43.412,116.318 42.695,115.574 37.222,121.566 41.641,114.611 			"/>
			<polygon fill="#017E40" points="69.177,128.363 68.085,128.215 66.33,133.76 66.646,127.922 65.518,127.703 65.297,135.91 
				63.873,142.27 65.129,142.49 66.349,136.131 			"/>
			<polygon fill="#017E40" points="45.41,117.941 37.707,130.361 38.567,131.027 48.311,120.086 47.445,119.418 40.624,127.402 
				46.275,118.604 			"/>
			<g>
				<path fill="#017E40" d="M17.945,106.252l0.533,1.035l12.441-7.617l-0.5-1.029l-13.824,4.586l0.486,1.178l3.212-1.252
					l0.594,1.326L17.945,106.252z M21.184,102.852l7.109-2.59l-6.598,3.701L21.184,102.852z"/>
				<polygon fill="#017E40" points="20.405,110.842 20.976,111.875 33.45,104.332 32.898,103.518 26.869,107.068 26.025,105.51 
					32.141,102.189 31.773,101.377 18.808,107.955 19.365,109.145 25.062,105.957 25.967,107.584 				"/>
				<path fill="#017E40" d="M34.989,108.842c0,0,1.123-0.443,0.325-1.631c-0.771-1.254-1.293-1.99-1.293-1.99l-12.285,7.836
					l1.883,2.738c0,0,0.645,1.035,1.667,0.219C26.298,115.201,34.989,108.842,34.989,108.842z M23.895,114.24l-0.574-0.816
					l10.479-7.02c0,0,0.452,0.664,0.706,1.037c0.276,0.438-0.445,0.736-0.575,0.887c-0.131,0.143-7.944,5.545-8.945,6.283
					C24.493,114.908,24.304,114.832,23.895,114.24z"/>
				<polygon fill="#017E40" points="22.12,99.598 22.585,100.637 23.634,100.199 23.211,99.084 28.442,97.086 29.092,98.488 
					30.143,98.043 29.251,95.76 15.636,100.859 16.04,101.969 				"/>
			</g>
		</g>
		<polygon fill="#017E40" points="74.312,52.199 72.653,53.082 73.226,57.008 74.688,56.561 		"/>
		<polygon fill="#017E40" points="74.762,57.299 73.314,57.748 73.636,61.148 74.904,60.998 		"/>
		<polygon fill="#017E40" points="74.946,51.164 74.17,45.396 77.593,44.877 77.565,51.019 		"/>
		<polygon fill="#017E40" points="71.321,47.098 72.522,52.352 74.3,51.387 73.522,45.695 		"/>
		<polygon fill="#017E40" points="75.016,51.831 75.37,56.338 77.565,56.338 77.565,51.682 		"/>
		<polygon fill="#017E40" points="75.486,57.086 75.591,60.923 77.6,60.923 77.6,57.086 		"/>
		<polygon fill="#017E40" points="81.484,52.199 83.152,53.082 82.582,57.008 81.118,56.561 		"/>
		<polygon fill="#017E40" points="81.048,57.299 82.502,57.748 82.167,61.148 80.896,60.998 		"/>
		<polygon fill="#017E40" points="80.854,51.164 81.638,45.396 78.231,44.877 78.231,51.019 		"/>
		<polygon fill="#017E40" points="84.483,47.098 83.278,52.352 81.507,51.387 82.274,45.695 		"/>
		<polygon fill="#017E40" points="80.788,51.831 80.437,56.338 78.231,56.338 78.231,51.682 		"/>
		<polygon fill="#017E40" points="80.356,57.086 80.248,60.923 78.231,60.923 78.231,57.086 		"/>
		<path fill="#017E40" d="M74.389,97.971l-1.144,1.113h9.336l-1.174-1.113h-0.07c0-0.221,0-0.221,0-0.293
			c0-1.695,0.482-2.297,0.755-2.584V61.811l-1.237-0.074v36.234h-1.328c0-0.148,0-0.367,0-0.59c0-1.328,0.322-2.07,0.666-2.438
			l-0.02-33.279h-1.941v33.209c0.391,0.438,0.783,1.109,0.783,2.578c0,0.227,0,0.371,0,0.52h-2.182c0-0.148,0-0.293,0-0.52
			c0-1.469,0.384-2.141,0.768-2.578l-0.034-33.209h-1.905l-0.01,33.279c0.34,0.367,0.664,1.109,0.664,2.438c0,0.223,0,0.441,0,0.59
			h-1.368V61.736l-1.243,0.074v33.283c0.279,0.287,0.757,0.889,0.757,2.584c0,0.072,0,0.072,0,0.293H74.389z"/>
		<g>
			<path fill="#017E40" d="M86.995,92.943c0,0-0.234,0.225-0.593,0.893c0,0,1.846,1.402,1.79,4.805
				C88.192,98.641,89.123,95.016,86.995,92.943z"/>
			<g>
				<path fill="#017E40" d="M93.717,93.016c0,0.229-0.072,0.6-0.777,0.6c-0.748,0-0.79-0.742-0.79-0.742
					c-0.223,0.521-0.502,0.742-0.946,0.66c-0.452,0.082-0.73-0.518-0.881-0.59l-0.18,0.225c-0.073,0.152-0.185,0.186-0.402,0.586
					c0,0,1.835,1.484,1.801,4.887c0,0,0.567-2.297-0.242-4.287c0.891,0,0.849-0.67,0.849-0.67s0.079,0.59,0.869,0.59
					C93.776,94.273,93.757,93.311,93.717,93.016z"/>
				<path fill="#017E40" d="M93.717,92.873c0,0,0,0.07,0,0.143C93.717,92.943,93.717,92.873,93.717,92.873z"/>
			</g>
			<g>
				<path fill="#017E40" d="M102.538,93.016c0,0.229-0.093,0.6-0.777,0.6c-0.759,0-0.797-0.672-0.797-0.672
					c-0.226,0.52-0.518,0.672-0.937,0.672c-0.461,0-0.739-0.529-0.893-0.672l-0.179,0.318c-0.116,0.139-0.208,0.229-0.398,0.574
					c0,0,1.838,1.402,1.8,4.805c0,0,0.556-2.221-0.243-4.215c0.887,0,0.85-0.742,0.85-0.742s0.072,0.59,0.869,0.59
					C102.575,94.273,102.575,93.395,102.538,93.016z"/>
				<path fill="#017E40" d="M102.515,92.943c0,0,0.023,0,0.023,0.072C102.538,92.943,102.515,92.943,102.515,92.943z"/>
			</g>
			<path fill="#017E40" d="M96.149,93.016c0,0-0.112,2.514-1.932,4.662l0.443,1.039c0,0,1.489-1.777,1.489-4.145
				c0,0,0.252,2.734,1.877,4.145l0.261-1.039C96.546,95.832,96.149,93.016,96.149,93.016z"/>
		</g>
		<g>
			<path fill="#017E40" d="M56.923,95.529c-0.127-0.148-0.2-0.436-0.2-0.736c0-0.439,0.103-0.74,0.312-0.889
				c0.146-0.15,0.313-0.15,0.498-0.15c0.264,0,0.489,0.082,0.634,0.299c0.144,0.15,0.218,0.447,0.218,0.74
				c0,0.369-0.13,0.672-0.363,0.885c-0.154,0.082-0.303,0.082-0.453,0.082C57.278,95.76,57.067,95.678,56.923,95.529z
				 M56.088,96.203c0.373,0.371,0.779,0.512,1.218,0.512c0.321,0,0.574-0.07,0.799-0.219c0.112-0.076,0.224-0.152,0.316-0.293
				c-0.019,0.441-0.056,0.812-0.152,1.031c-0.142,0.369-0.403,0.588-0.771,0.588c-0.207,0-0.352-0.072-0.482-0.145
				c-0.112-0.074-0.191-0.227-0.205-0.443h-1.126c0.056,0.516,0.238,0.887,0.589,1.105c0.354,0.301,0.742,0.449,1.17,0.449
				c0.903,0,1.514-0.449,1.865-1.338c0.168-0.512,0.257-1.031,0.257-1.773c0-0.734-0.089-1.252-0.277-1.695
				c-0.331-0.814-0.925-1.186-1.792-1.186c-0.576,0-1.038,0.219-1.392,0.598c-0.365,0.359-0.533,0.879-0.533,1.479
				C55.574,95.465,55.742,95.902,56.088,96.203z"/>
			<path fill="#017E40" d="M65.411,96.865h1.108c0,0.221,0.038,0.441,0.105,0.586c0.153,0.227,0.392,0.371,0.765,0.371
				c0.224,0,0.403-0.072,0.566-0.219c0.168-0.152,0.261-0.369,0.261-0.664c0-0.365-0.167-0.596-0.458-0.736
				c-0.19-0.078-0.47-0.078-0.834-0.078v-0.814c0.364,0,0.625-0.072,0.773-0.148c0.242-0.068,0.374-0.289,0.374-0.662
				c0-0.227-0.07-0.375-0.186-0.518c-0.127-0.146-0.317-0.229-0.557-0.229c-0.256,0-0.458,0.082-0.588,0.229
				c-0.116,0.221-0.183,0.443-0.172,0.734h-1.05c0-0.291,0.058-0.592,0.132-0.812c0.091-0.221,0.24-0.441,0.441-0.66
				c0.146-0.158,0.329-0.229,0.533-0.301c0.208-0.07,0.448-0.07,0.742-0.07c0.551,0,1,0.07,1.331,0.371
				c0.332,0.289,0.518,0.66,0.518,1.182c0,0.291-0.108,0.59-0.313,0.812c-0.131,0.143-0.264,0.291-0.391,0.291
				c0.088,0,0.237,0.148,0.447,0.303c0.277,0.293,0.424,0.664,0.424,1.107c0,0.441-0.167,0.883-0.504,1.252
				c-0.328,0.371-0.829,0.598-1.489,0.598c-0.821,0-1.392-0.301-1.701-0.818C65.518,97.678,65.427,97.307,65.411,96.865z"/>
			<path fill="#017E40" d="M61.956,95.982c0.142-0.15,0.31-0.223,0.492-0.223c0.245,0,0.447,0.143,0.611,0.293
				c0.169,0.15,0.247,0.443,0.247,0.736c0,0.297-0.078,0.592-0.209,0.734c-0.149,0.227-0.35,0.299-0.611,0.299
				c-0.239,0-0.458-0.072-0.623-0.299c-0.171-0.143-0.242-0.438-0.242-0.734C61.621,96.42,61.729,96.125,61.956,95.982z
				 M63.802,93.244c-0.331-0.301-0.756-0.447-1.275-0.447c-0.368,0-0.708,0.076-0.961,0.219c-0.258,0.229-0.485,0.447-0.653,0.738
				c-0.178,0.299-0.313,0.672-0.38,1.189c-0.04,0.295-0.06,0.664-0.06,1.109c0,0.736,0.126,1.328,0.407,1.77
				c0.333,0.666,0.869,0.967,1.606,0.967c0.668,0,1.167-0.227,1.484-0.668c0.323-0.371,0.481-0.887,0.481-1.406
				c0-0.512-0.169-0.955-0.481-1.334c-0.335-0.365-0.759-0.508-1.257-0.508c-0.245,0-0.466,0.07-0.651,0.143
				c-0.183,0.078-0.332,0.146-0.482,0.365c0.042-0.438,0.094-0.809,0.168-1.027c0.165-0.449,0.424-0.6,0.795-0.6
				c0.24,0,0.425,0.082,0.554,0.229c0.071,0.143,0.113,0.221,0.113,0.291h1.128C64.282,93.836,64.114,93.463,63.802,93.244z"/>
			<path fill="#017E40" d="M54.947,97.75h-0.701v-4.734h-0.928c0,0.07-0.019,0.152-0.057,0.229c-0.053,0.15-0.13,0.289-0.222,0.439
				c-0.141,0.152-0.333,0.221-0.551,0.299c-0.054,0-0.145,0-0.243,0v0.811h0.854v2.957h-0.833v0.967h2.681V97.75z"/>
		</g>
		<path fill="#017E40" d="M97.74,114.166l-6.384-1.559l5.376-0.439l-4.32-8.871c-4.791,1.41-8.825-1.48-10.373-1.697
			c-1.848-0.299-2.919,0.445-4.338,1.627c-1.301-1.41-3.051-2.145-4.865-1.627c-3.29,0.66-5.288,2.658-9.992,1.553l-4.184,8.648
			l5.507,0.891l-6.428,0.961l-1.54,3.031l19.092-2.518c0.448,0.666,1.409,1.48,2.409,1.408c0.808-0.15,1.591-0.59,2.026-1.334
			l19.56,2.59L97.74,114.166z M77.622,114.092c-0.752-0.074-1.104-0.885-1.091-0.961c-0.085-0.811,0.869-3.254,1.091-4.436
			c0.216,1.182,1.201,3.699,1.038,4.436C78.673,113.207,78.382,114.018,77.622,114.092z"/>
	</g>
</g>
</svg>
